<svg id="Layer_1" data-name="Layer 1" xmlns="http://www.w3.org/2000/svg" xmlns:xlink="http://www.w3.org/1999/xlink" viewBox="0 0 1069.96 965.44"><defs><style>.cls-1{fill:url(#linear-gradient);}.cls-2{fill:url(#linear-gradient-2);}</style><linearGradient id="linear-gradient" x1="-196.35" y1="-1845.76" x2="1367.58" y2="2496.93" gradientUnits="userSpaceOnUse"><stop offset="0" stop-color="#d59b18"/><stop offset="0" stop-color="#bc7b2b"/><stop offset="0.24" stop-color="#bd7d2c"/><stop offset="0.32" stop-color="#c1842f"/><stop offset="0.38" stop-color="#c88f34"/><stop offset="0.43" stop-color="#d1a03b"/><stop offset="0.47" stop-color="#deb644"/><stop offset="0.51" stop-color="#edd14f"/><stop offset="0.54" stop-color="#fff05c"/><stop offset="0.54" stop-color="#fff15c"/><stop offset="1" stop-color="#fff482"/></linearGradient><linearGradient id="linear-gradient-2" x1="541.2" y1="2807.17" x2="530.73" y2="-355.59" gradientUnits="userSpaceOnUse"><stop offset="0" stop-color="#d59b18"/><stop offset="0" stop-color="#bc7b2b"/><stop offset="0.3" stop-color="#bd7d2c"/><stop offset="0.4" stop-color="#c1842f"/><stop offset="0.48" stop-color="#c88f34"/><stop offset="0.54" stop-color="#d1a03b"/><stop offset="0.59" stop-color="#deb644"/><stop offset="0.64" stop-color="#edd14f"/><stop offset="0.68" stop-color="#fff05c"/><stop offset="0.68" stop-color="#fff15c"/><stop offset="1" stop-color="#fff482"/></linearGradient></defs><path class="cls-1" d="M791.89,0H271.42L110.57,175.74,531.66,685.15,952.72,175.74ZM266.72,283l0,7.9-.28-.35v.35l-65.51-79.59-4.72-5.73H266.4v8.27l.58-.59ZM174.9,175l48.51-53,20.73-22.61,21.79-23.84,1.6-1.74L267.88,175ZM637.37,68.81l7-7.05L696,113.67l54.24,54.65L743.55,175H637.37Zm0,136.8h75.51L659.49,259l-22.12-22.11Zm0,118.86,22.12-22.1,53.41,53.41H637.37Zm-180.8-225L510,152.87,487.87,175h-31.3Zm0,287h31.3L510,408.53l-53.41,53.41ZM298.26,47.32v-.08H390.8L344.58,93.11l-46.67,46.33Zm-.71,281v0l-.37-.45.19-47.68.28-74.54h9.42l75.08,75.09L314.3,348.53v0ZM425.93,483.59l-80.32-97.18h80.32Zm0-127.81H350.39l53.42-53.41,22.12,22.1Zm0-118.87L403.81,259l-53.42-53.41h75.54Zm0-61.92H319.77l-7.07-7.07,54.65-54.25,51.91-51.53,6.67,6.67ZM532,611.1l-.3.36-.33-.36-3-3.61-51-61.67-.32-.39,54.61.2,54.26.19Zm74.76-95.83L531.66,515l-75.09-.29v-9.43l75.09-75.07,75.06,75.07Zm0-53.33-53.41-53.41,22.12-22.12h31.29Zm0-150.15-44,44H500.57l-44-44v-62.2l44-44h62.2l44,44Zm0-136.8H575.43l-22.12-22.12,53.41-53.42Zm0-118.88-75.08,75.08L456.57,56.13V47.24H606.72Zm30.65,427.48V386.41H717.7ZM765.93,280.15l-.19,48.13v0L749,348.53h0v0L681.14,280.7l75.09-75.09h10Zm.52-138.93L718.71,93.11,673.18,47.24H747l18.09.08h1.78Zm29.31-67.45,1.6,1.74,21.82,23.82,0,0L839.88,122l48.53,53h-93ZM862.4,211.34l-65.5,79.59v-.35l-.29.35-.06.08,0-8-.26-69.74.59.59v-8.27h70.24Z"/><path class="cls-2" d="M44,876.4a154.81,154.81,0,0,0,0,42.71,83.54,83.54,0,0,0,5.27,20.35,38.47,38.47,0,0,0,10.64,15.16q6.83,5.82,17.38,5.83a26.16,26.16,0,0,0,9-1.58,44,44,0,0,0,8.23-4A28.42,28.42,0,0,0,107,939.55q3.22-9.62,4.53-24.78h4.25q0,18.12.19,29.31t.55,18.77h-4.25q-.75-8-2.5-10c-1.17-1.35-3.11-1.17-5.82.56a97.65,97.65,0,0,1-14.52,8.41q-7.68,3.61-19.69,3.61-20.91,0-36.62-8A57.7,57.7,0,0,1,8.69,934.56Q0,919.58,0,898.49q0-20.7,9-36.24A63.47,63.47,0,0,1,33.66,838q15.71-8.68,36.24-8.69,12.21,0,20.07,3.61a69.15,69.15,0,0,1,14,8.41q3.69,2.77,5.64.65c1.29-1.41,2.18-4.78,2.68-10.08h4.25q-.37,7.41-.55,18t-.19,28.2h-4.25a106.94,106.94,0,0,0-2.41-15.81,41.16,41.16,0,0,0-5-12.29,30.65,30.65,0,0,0-9.61-9.44,35.84,35.84,0,0,0-8.23-4.07,27.83,27.83,0,0,0-9-1.47q-10.55,0-17.38,5.82a38.47,38.47,0,0,0-10.64,15.16A83.54,83.54,0,0,0,44,876.4Zm1020.31,80.34a43.38,43.38,0,0,1-5.83-7l-46.72-66.28,21.94-26.92A102.29,102.29,0,0,1,1045.64,844a43.51,43.51,0,0,1,13-8.41v-3.7q-3,.2-7.58.37t-10.36.19q-3,0-7.4-.1l-9.06-.18q-4.62-.09-8.13-.28v3.7q7.4.55,10.72,4.9t1.76,11.28q-1.58,6.93-8.78,15.26L1009.33,880l-26.84-38.07q-2.6-3.7-.09-5t10.26-1.3v-3.88q-4.26.18-12.67.46t-17.1.28q-9.61,0-19.14-.28t-14.33-.46v3.88a9,9,0,0,1,5.73,2,45.87,45.87,0,0,1,5.73,7.22L983,905.1l-22.17,27.79A120.58,120.58,0,0,1,945,949.63a59,59,0,0,1-14.79,9.52v3.7q3.14-.37,7.67-.46c3-.06,6.44-.1,10.27-.1h6.47c2.83,0,5.88,0,9.15.1l9.34.18c3,.06,5.3.16,7,.28v-3.7q-8.33-.74-12.39-5.64t-2.68-13q1.38-8,9.15-17.84l11.33-14.1,30.83,44.06c1.73,2.46,1.76,4.13.09,5s-5.08,1.3-10.26,1.3v3.88q4.62-.18,13.87-.46t18.31-.28q9.24,0,18.12.28t13.5.46V959A9.94,9.94,0,0,1,1064.32,956.74ZM799.23,929.93q0-10.35.56-17h-4.26A70.06,70.06,0,0,1,790,930a71.33,71.33,0,0,1-9.16,14.71A50.09,50.09,0,0,1,770,954.9c-3.69,2.46-7.15,3.69-10.35,3.69h-6.1a16.19,16.19,0,0,1-5.92-.83,4.8,4.8,0,0,1-2.78-3.33,28.43,28.43,0,0,1-.73-7.49V851.52q0-6.82,1.1-10.08a6.93,6.93,0,0,1,4.35-4.43,31.74,31.74,0,0,1,9.52-1.39v-3.7q-5.73.2-14.6.37t-18.13.19q-10,0-18.77-.19t-14.14-.37v3.7a25.11,25.11,0,0,1,8.41,1.39,6.44,6.44,0,0,1,3.79,4.43,39.82,39.82,0,0,1,.93,10.08v91.73a39.84,39.84,0,0,1-.93,10,6.23,6.23,0,0,1-3.7,4.44,29.26,29.26,0,0,1-8.5,1.48v3.7q8.13-.18,17.29-.28l18.12-.18q9-.09,16.64-.1h12.67q9.24,0,21.08.1t21.27.46q-.93-9.81-1.11-19T799.23,929.93ZM687.9,956.28c2,1.79,3.76,2.75,5.37,2.87v3.7q-6.66-.37-15.54-.46t-18.12-.1q-9.43,0-17.75.1t-13.32.46v-3.7c6.29-.25,10.27-1.32,11.93-3.24s1.26-6-1.2-12.29l-10.95-30.33H591.06l-3.2,8.32q-4.62,12-5.64,19.33t.83,11.18a10.18,10.18,0,0,0,5.92,5.37,31.34,31.34,0,0,0,9.62,1.66v3.7q-6.86-.37-12.3-.46t-11.93-.1c-2.34,0-4.84,0-7.49.1a62.12,62.12,0,0,0-6.75.46v-3.7q4.26-.74,8.42-5.46t8.6-16.18l41.05-105.59c3,.25,6.19.37,9.71.37s6.75-.12,9.71-.37l44.75,115.4Q684.94,953.61,687.9,956.28ZM627,909.59l-16.71-46.27-17.79,46.27Zm-201.75-11.1q-6.76-5.72-15.07-11.46-11.66-8.13-18.77-13.5a45.68,45.68,0,0,1-10.45-10.26,20.4,20.4,0,0,1-3.33-11.75q0-8.31,5.36-12.75c3.58-3,8.07-4.44,13.5-4.44A23.8,23.8,0,0,1,413,840.61a43.66,43.66,0,0,1,10.91,15.91,63.71,63.71,0,0,1,4.72,19.79h4.25q0-13.87.09-22.38t.37-13.69c.19-3.45.34-6.47.47-9.06h-4.26a27,27,0,0,1-1.38,6.11,2.83,2.83,0,0,1-2.69,2,6.23,6.23,0,0,1-2.68-.65c-.92-.43-2.12-1.08-3.6-1.94a77.52,77.52,0,0,0-11.28-5q-6.66-2.4-18.68-2.41a67.27,67.27,0,0,0-22.38,3.7,38.37,38.37,0,0,0-17,11.37q-6.48,7.68-6.47,19.88a33,33,0,0,0,4.53,17.57A50.18,50.18,0,0,0,360,895.17q7.57,5.91,16.27,11.83a139.84,139.84,0,0,1,14,10.26,44.7,44.7,0,0,1,9.52,10.92,25.8,25.8,0,0,1,3.51,13.59,17,17,0,0,1-2.77,9.8,17.39,17.39,0,0,1-7.68,6.19,29.31,29.31,0,0,1-11.74,2.13q-11.83,0-18.95-6.94t-10.54-18.21a102.91,102.91,0,0,1-4.16-24.23h-4.26q0,15.74-.09,25.89T342.94,953c-.07,4.26-.22,8-.47,11.19h4.26a27,27,0,0,1,1.38-6.1,2.8,2.8,0,0,1,2.68-2q2.22,0,6.29,2.58a92.78,92.78,0,0,0,12.67,4.63q7.49,2.22,20.06,2.22a75.8,75.8,0,0,0,25-4,41.4,41.4,0,0,0,18.4-12.11q6.93-8.13,6.93-20.53,0-10.17-4.07-17.38A47.74,47.74,0,0,0,425.23,898.49Zm105.12-62.31a25.36,25.36,0,0,1,13.41,4.16q6.75,4.15,12.76,14.14t10.26,27.37H571q-.19-2.4-.37-5.92t-.19-7.39c0-3.58.09-8.75.28-15.54s.52-13.8,1-21.08q-8.7.2-19.42.37t-21.45.19H492.07q-10.72,0-21.45-.19t-19.6-.37q.74,10.92,1,21.08c.18,6.79.28,12,.28,15.54,0,2.59,0,5.05-.1,7.39a47.12,47.12,0,0,1-.46,5.92H456q4.44-17.57,10.36-27.46t12.67-14a25.35,25.35,0,0,1,13.4-4.16h.19V942q0,7.59-1.57,11.28a8.23,8.23,0,0,1-6,4.81,57,57,0,0,1-12.95,1.11v3.7q6.28-.18,16.46-.37t21.64-.19q12,0,23,.19t17.48.37v-3.7a56.91,56.91,0,0,1-13-1.11,8.23,8.23,0,0,1-6-4.81q-1.57-3.69-1.57-11.28V836.18ZM261.48,953.05l2.4,2.4a30.71,30.71,0,0,1-12.48,7.86,50.65,50.65,0,0,1-15.26,2.13q-12,0-19.42-4.35t-9.06-15.63L204.89,927a108.27,108.27,0,0,0-2.77-13.5,26,26,0,0,0-4.44-9.34,9.27,9.27,0,0,0-7.58-3.42h-8.33v42.54a36.46,36.46,0,0,0,1,10,6.47,6.47,0,0,0,3.79,4.44,29,29,0,0,0,8.32,1.48v3.7q-5.35-.37-13.77-.46t-17.11-.1q-10,0-18.77.1t-14.14.46v-3.7a29.61,29.61,0,0,0,8.5-1.48,6.23,6.23,0,0,0,3.7-4.44,39.84,39.84,0,0,0,.93-10V851.52a39.82,39.82,0,0,0-.93-10.08,6.44,6.44,0,0,0-3.79-4.43,25.11,25.11,0,0,0-8.41-1.39v-3.7q5.35.2,14.14.37t17.66.19c6.17,0,12.08-.06,17.76-.19s9.67-.18,12-.18q18.87,0,31.16,3.51t18.4,10.63q6.1,7.13,6.11,18a33.46,33.46,0,0,1-2.78,13.32,30.32,30.32,0,0,1-9.43,11.74q-6.66,5.28-18.21,8.32a89,89,0,0,1-14.46,2.41q18.5,1.09,28,6.75a24.89,24.89,0,0,1,12.11,17.38l3.88,19.23q1.49,6.84,3.33,9.43a5.82,5.82,0,0,0,5,2.59,8,8,0,0,0,3.15-.55A8.63,8.63,0,0,0,261.48,953.05Zm-53.72-71.29a63,63,0,0,0,1.75-15.44q0-14.61-4-22.65t-13.78-8c-4.19,0-6.91,1-8.14,3.15s-1.85,6.35-1.85,12.75V897h5q9.42,0,14.33-4.16A21,21,0,0,0,207.76,881.76ZM913,832.48q-5.18,0-11.09-.19t-9.62-.37v3.7q8.88,1.11,12.76,4.07t4.9,9.52a132.48,132.48,0,0,1,1,19v42.9a95.57,95.57,0,0,1-3,25.06q-3,10.82-10,16.82t-19.41,6a29.47,29.47,0,0,1-10.08-1.58,15.57,15.57,0,0,1-7.21-5.27,25.66,25.66,0,0,1-4.35-9.89A66.68,66.68,0,0,1,855.45,927V851.52q0-6.82,1.11-10.08a6.93,6.93,0,0,1,4.35-4.43,31.68,31.68,0,0,1,9.52-1.39v-3.7q-5.73.2-14.61.37t-18.49.19q-9.62,0-18.4-.19t-14.15-.37v3.7a24.87,24.87,0,0,1,8.51,1.39,6.47,6.47,0,0,1,3.7,4.43,40.4,40.4,0,0,1,.92,10.08v58.07A164,164,0,0,0,819,929.75a47.77,47.77,0,0,0,4.44,15.53,31.18,31.18,0,0,0,9.61,11.28,43.57,43.57,0,0,0,16.83,7,93.6,93.6,0,0,0,17.94,1.85q15.9,0,25.43-4.63a33.05,33.05,0,0,0,14.33-12.57,48.13,48.13,0,0,0,6-17.57A142.72,142.72,0,0,0,915.18,909V864.47a112,112,0,0,1,.92-16.37q.93-5.82,3.8-8.6t8.41-3.88v-3.7q-2.77.2-6.93.37C918.6,832.42,915.8,832.48,913,832.48Zm-615.61,0q-10,0-18.77-.19t-14.14-.37v3.7a25.06,25.06,0,0,1,8.41,1.39,6.44,6.44,0,0,1,3.79,4.43,39.82,39.82,0,0,1,.93,10.08v91.73a39.84,39.84,0,0,1-.93,10,6.23,6.23,0,0,1-3.7,4.44,29.2,29.2,0,0,1-8.5,1.48v3.7q5.35-.37,14.14-.46t18.77-.1q8.7,0,17.11.1t13.78.46v-3.7a28.56,28.56,0,0,1-8.32-1.48,6.48,6.48,0,0,1-3.8-4.44,36.94,36.94,0,0,1-1-10V851.52a39.92,39.92,0,0,1,.92-10.08,6.44,6.44,0,0,1,3.79-4.43,25.13,25.13,0,0,1,8.42-1.39v-3.7q-5.37.2-13.78.37T297.35,832.48Z"/></svg>